<svg width="47" height="49" viewBox="0 0 47 49" fill="none" xmlns="http://www.w3.org/2000/svg">
<path d="M17.6248 44.9166H29.3748C39.1665 44.9166 43.0832 40.8333 43.0832 30.625V18.375C43.0832 8.16665 39.1665 4.08331 29.3748 4.08331H17.6248C7.83317 4.08331 3.9165 8.16665 3.9165 18.375V30.625C3.9165 40.8333 7.83317 44.9166 17.6248 44.9166Z" stroke="black" stroke-width="1.5" stroke-linecap="round" stroke-linejoin="round"/>
<path d="M23.5002 31.6459C24.4003 31.6459 25.2916 31.461 26.1231 31.1019C26.9547 30.7428 27.7103 30.2164 28.3468 29.5529C28.9833 28.8893 29.4881 28.1016 29.8326 27.2346C30.177 26.3676 30.3543 25.4384 30.3543 24.5C30.3543 23.5616 30.177 22.6324 29.8326 21.7654C29.4881 20.8985 28.9833 20.1107 28.3468 19.4472C27.7103 18.7836 26.9547 18.2572 26.1231 17.8981C25.2916 17.539 24.4003 17.3542 23.5002 17.3542C21.6823 17.3542 19.9389 18.107 18.6535 19.4472C17.3681 20.7873 16.646 22.6048 16.646 24.5C16.646 26.3952 17.3681 28.2128 18.6535 29.5529C19.9389 30.893 21.6823 31.6459 23.5002 31.6459V31.6459Z" stroke="black" stroke-width="1.5" stroke-linecap="round" stroke-linejoin="round"/>
<path d="M34.5371 14.2917H34.5606" stroke="black" stroke-width="2" stroke-linecap="round" stroke-linejoin="round"/>
</svg>
