<svg width="40" height="46" viewBox="0 0 40 46" fill="none" xmlns="http://www.w3.org/2000/svg">
<path d="M23.3333 17.825V23.3833H27.6667C28 23.3833 28.1667 23.7667 28.1667 24.15L27.5 27.7917C27.5 27.9833 27.1667 28.175 27 28.175H23.3333V42.1667H18.3333V28.3667H15.5C15.1667 28.3667 15 28.175 15 27.7917V24.15C15 23.7667 15.1667 23.575 15.5 23.575H18.3333V17.25C18.3333 13.9917 20.5 11.5 23.3333 11.5H27.8333C28.1667 11.5 28.3333 11.6917 28.3333 12.075V16.675C28.3333 17.0583 28.1667 17.25 27.8333 17.25H23.8333C23.5 17.25 23.3333 17.4417 23.3333 17.825V17.825Z" stroke="white" stroke-width="1.5" stroke-miterlimit="10" stroke-linecap="round"/>
<path d="M25 42.1667H15C6.66671 42.1667 3.33337 38.3333 3.33337 28.75V17.25C3.33337 7.66668 6.66671 3.83334 15 3.83334H25C33.3334 3.83334 36.6667 7.66668 36.6667 17.25V28.75C36.6667 38.3333 33.3334 42.1667 25 42.1667Z" stroke="white" stroke-width="1.5" stroke-linecap="round" stroke-linejoin="round"/>
</svg>
