<svg width="47" height="49" viewBox="0 0 47 49" fill="none" xmlns="http://www.w3.org/2000/svg">
<path d="M17.6248 44.9166H29.3748C39.1665 44.9166 43.0832 40.8332 43.0832 30.6249V18.3749C43.0832 8.16658 39.1665 4.08325 29.3748 4.08325H17.6248C7.83317 4.08325 3.9165 8.16658 3.9165 18.3749V30.6249C3.9165 40.8332 7.83317 44.9166 17.6248 44.9166Z" stroke="black" stroke-width="1.5" stroke-linecap="round" stroke-linejoin="round"/>
<path d="M23.5002 31.6459C24.4003 31.6459 25.2916 31.4611 26.1231 31.102C26.9547 30.7429 27.7103 30.2165 28.3468 29.5529C28.9833 28.8894 29.4881 28.1016 29.8326 27.2347C30.177 26.3677 30.3543 25.4385 30.3543 24.5001C30.3543 23.5617 30.177 22.6325 29.8326 21.7655C29.4881 20.8985 28.9833 20.1108 28.3468 19.4472C27.7103 18.7837 26.9547 18.2573 26.1231 17.8982C25.2916 17.5391 24.4003 17.3542 23.5002 17.3542C21.6823 17.3542 19.9389 18.1071 18.6535 19.4472C17.3681 20.7873 16.646 22.6049 16.646 24.5001C16.646 26.3953 17.3681 28.2128 18.6535 29.5529C19.9389 30.8931 21.6823 31.6459 23.5002 31.6459V31.6459Z" stroke="black" stroke-width="1.5" stroke-linecap="round" stroke-linejoin="round"/>
<path d="M34.5371 14.2917H34.5606" stroke="black" stroke-width="2" stroke-linecap="round" stroke-linejoin="round"/>
</svg>
