<svg width="47" height="49" viewBox="0 0 47 49" fill="none" xmlns="http://www.w3.org/2000/svg">
<path d="M17.625 44.9167H29.375C39.1666 44.9167 43.0833 40.8333 43.0833 30.625V18.375C43.0833 8.16668 39.1666 4.08334 29.375 4.08334H17.625C7.83329 4.08334 3.91663 8.16668 3.91663 18.375V30.625C3.91663 40.8333 7.83329 44.9167 17.625 44.9167Z" stroke="white" stroke-width="1.5" stroke-linecap="round" stroke-linejoin="round"/>
<path d="M23.5 31.6458C24.4001 31.6458 25.2914 31.461 26.123 31.1019C26.9546 30.7428 27.7102 30.2164 28.3467 29.5529C28.9831 28.8893 29.488 28.1016 29.8325 27.2346C30.1769 26.3676 30.3542 25.4384 30.3542 24.5C30.3542 23.5616 30.1769 22.6324 29.8325 21.7654C29.488 20.8984 28.9831 20.1107 28.3467 19.4471C27.7102 18.7836 26.9546 18.2572 26.123 17.8981C25.2914 17.539 24.4001 17.3542 23.5 17.3542C21.6822 17.3542 19.9388 18.107 18.6534 19.4471C17.368 20.7872 16.6459 22.6048 16.6459 24.5C16.6459 26.3952 17.368 28.2128 18.6534 29.5529C19.9388 30.893 21.6822 31.6458 23.5 31.6458V31.6458Z" stroke="white" stroke-width="1.5" stroke-linecap="round" stroke-linejoin="round"/>
<path d="M34.5371 14.2917H34.5606" stroke="white" stroke-width="2" stroke-linecap="round" stroke-linejoin="round"/>
</svg>
