<svg width="47" height="49" viewBox="0 0 47 49" fill="none" xmlns="http://www.w3.org/2000/svg">
<path d="M17.6251 44.9166H29.3751C39.1667 44.9166 43.0834 40.8332 43.0834 30.6249V18.3749C43.0834 8.16658 39.1667 4.08325 29.3751 4.08325H17.6251C7.83341 4.08325 3.91675 8.16658 3.91675 18.3749V30.6249C3.91675 40.8332 7.83341 44.9166 17.6251 44.9166Z" stroke="black" stroke-width="1.5" stroke-linecap="round" stroke-linejoin="round"/>
<path d="M23.4999 31.6459C24.4 31.6459 25.2913 31.4611 26.1229 31.102C26.9545 30.7429 27.7101 30.2165 28.3465 29.5529C28.983 28.8894 29.4879 28.1016 29.8323 27.2347C30.1768 26.3677 30.3541 25.4385 30.3541 24.5001C30.3541 23.5617 30.1768 22.6325 29.8323 21.7655C29.4879 20.8985 28.983 20.1108 28.3465 19.4472C27.7101 18.7837 26.9545 18.2573 26.1229 17.8982C25.2913 17.5391 24.4 17.3542 23.4999 17.3542C21.6821 17.3542 19.9387 18.1071 18.6533 19.4472C17.3679 20.7873 16.6458 22.6049 16.6458 24.5001C16.6458 26.3953 17.3679 28.2128 18.6533 29.5529C19.9387 30.8931 21.6821 31.6459 23.4999 31.6459V31.6459Z" stroke="black" stroke-width="1.5" stroke-linecap="round" stroke-linejoin="round"/>
<path d="M34.5371 14.2917H34.5606" stroke="black" stroke-width="2" stroke-linecap="round" stroke-linejoin="round"/>
</svg>
